<svg width="22" height="22" viewBox="0 0 22 22" fill="none" xmlns="http://www.w3.org/2000/svg">
<path d="M21 11.6667C20.9123 11.6672 20.8253 11.6504 20.7441 11.6172C20.6629 11.584 20.589 11.5351 20.5267 11.4733L11 1.94L1.47335 11.4733C1.34582 11.5825 1.18177 11.6396 1.01398 11.6331C0.846199 11.6267 0.687039 11.5571 0.568309 11.4384C0.44958 11.3196 0.380025 11.1605 0.373544 10.9927C0.367063 10.8249 0.424134 10.6609 0.533352 10.5333L10.5334 0.533332C10.6583 0.409164 10.8272 0.33947 11.0034 0.33947C11.1795 0.33947 11.3484 0.409164 11.4733 0.533332L21.4733 10.5333C21.5651 10.6269 21.6272 10.7455 21.6519 10.8742C21.6767 11.0029 21.6629 11.136 21.6124 11.2569C21.5619 11.3779 21.4769 11.4812 21.368 11.5541C21.2591 11.627 21.1311 11.6661 21 11.6667Z" fill="#242424"/>
<path d="M11 4.19333L3 12.22V20.3333C3 20.6869 3.14048 21.0261 3.39052 21.2761C3.64057 21.5262 3.97971 21.6667 4.33333 21.6667H9V15H13V21.6667H17.6667C18.0203 21.6667 18.3594 21.5262 18.6095 21.2761C18.8595 21.0261 19 20.6869 19 20.3333V12.1733L11 4.19333Z" fill="#242424"/>
</svg>
