<svg width="24" height="28" viewBox="0 0 24 28" fill="none" xmlns="http://www.w3.org/2000/svg">
<path d="M9.69262 19.1138C5.30842 19.1138 1.74179 22.6805 1.74179 27.0647C1.74179 27.5813 2.16053 28 2.67716 28H16.7084C17.225 28 17.6438 27.5813 17.6435 27.0647C17.6435 22.6805 14.0768 19.1138 9.69262 19.1138ZM3.6846 26.1292C4.13577 23.2192 6.6582 20.9846 9.69295 20.9846C12.7277 20.9846 15.2501 23.2192 15.7013 26.1292H3.6846Z" fill="#606060"/>
<path d="M23.5118 2.0828C22.2194 0.790107 20.4952 0.0782471 18.6568 0.0782471C16.8188 0.0782471 15.0949 0.790107 13.8022 2.0828C11.1251 4.75989 11.1251 9.11603 13.8022 11.7931C13.9774 11.9687 14.2153 12.0672 14.4635 12.0672C14.7117 12.0672 14.9493 11.9687 15.1248 11.7929L23.5119 3.40551C23.8773 3.04031 23.8773 2.44789 23.5118 2.0828ZM14.5256 9.74674C13.2036 7.8036 13.4031 5.12744 15.1248 3.40573C16.0643 2.46659 17.3183 1.94931 18.6569 1.94931C19.6761 1.94931 20.6462 2.24894 21.4659 2.80642L14.5256 9.74674Z" fill="#606060"/>
<path d="M12.7189 0.213245C12.3541 -0.0867134 11.8243 -0.0682839 11.482 0.256283L0.506761 10.6392C0.324654 10.8116 0.219272 11.0498 0.214296 11.3008C0.209319 11.5515 0.305349 11.7938 0.480895 11.973L9.02415 20.7034L10.3615 19.3948L2.48353 11.3444L12.1683 2.18258L13.8067 3.52924L14.995 2.08409L12.7189 0.213245Z" fill="#606060"/>
</svg>
